<svg xmlns="http://www.w3.org/2000/svg" width="16.593" height="20.4" viewBox="0 0 16.593 20.4">
  <g id="PDF_file_icon" transform="translate(53.548 -183.974)">
    <path id="Path_807" data-name="Path 807" d="M-51.441,183.974a2.11,2.11,0,0,0-2.107,2.108v16.185a2.11,2.11,0,0,0,2.107,2.108h12.376a2.11,2.11,0,0,0,2.107-2.108V188.958a1.745,1.745,0,0,0-.136-.769,2.131,2.131,0,0,0-.417-.6l0,0-3.071-3.012-.005-.005a2.429,2.429,0,0,0-.651-.416,2.378,2.378,0,0,0-.929-.176h-9.273Z" fill="#ff2116"/>
    <path id="Path_808" data-name="Path 808" d="M-48.991,187.117H-39.7a1.977,1.977,0,0,1,.642.12,1.762,1.762,0,0,1,.448.283h0l3.063,3a1.69,1.69,0,0,1,.274.4,1.5,1.5,0,0,1,.077.458s0,.01,0,.015v13.323a1.4,1.4,0,0,1-1.415,1.415H-48.991a1.4,1.4,0,0,1-1.415-1.415V188.532a1.4,1.4,0,0,1,1.415-1.415Z" transform="translate(-2.45 -2.45)" fill="#f5f5f5"/>
    <path id="Path_809" data-name="Path 809" d="M-35.313,212.123c-.6-.6.049-1.419,1.8-2.291l1.1-.549.43-.941c.237-.518.59-1.362.785-1.877l.355-.936-.244-.693a4.948,4.948,0,0,1-.217-2.591c.258-.623,1.1-.559,1.439.109a4.221,4.221,0,0,1-.075,2.658l-.254.977.224.38a13.189,13.189,0,0,0,.8,1.1l.595.74.74-.1c2.351-.307,3.156.215,3.156.962,0,.943-1.846,1.021-3.4-.067a4.707,4.707,0,0,1-.588-.488s-.971.2-1.449.327c-.493.133-.74.216-1.462.46,0,0-.254.368-.419.636a6.85,6.85,0,0,1-1.845,2.122A1.258,1.258,0,0,1-35.313,212.123Zm.938-.335a7.072,7.072,0,0,0,1.487-1.758l.191-.3-.868.436c-1.34.674-1.953,1.309-1.635,1.693.179.216.393.2.825-.069Zm8.706-2.444a.5.5,0,0,0-.091-.881,2.439,2.439,0,0,0-1.273-.164c-.462.031-1.2.124-1.329.153,0,0,.408.282.589.385a7.82,7.82,0,0,0,1.254.524c.422.129.666.115.85-.017Zm-3.5-1.455a8.586,8.586,0,0,1-.751-.97,5.4,5.4,0,0,1-.421-.627s-.2.659-.373,1.056l-.525,1.3-.152.294s.809-.265,1.22-.373c.436-.114,1.32-.288,1.32-.288Zm-1.128-4.524a1.9,1.9,0,0,0-.065-1.065c-.379-.415-.837-.069-.76.917a6.726,6.726,0,0,0,.219,1.248l.2.635.141-.479A12.558,12.558,0,0,0-30.3,203.366Z" transform="translate(-15.049 -12.9)" fill="#ff2116"/>
  </g>
</svg>
